<svg width="25" height="25" viewBox="0 0 25 25" fill="none" xmlns="http://www.w3.org/2000/svg">
<path d="M20.1663 10.2762L23.8088 6.84875L23.83 6.8275C24.5802 6.07727 25.0017 5.05973 25.0017 3.99875C25.0017 2.93776 24.5802 1.92023 23.83 1.17C23.0798 0.419767 22.0622 -0.00170898 21.0012 -0.00170898C19.9403 -0.00170898 18.9227 0.419767 18.1725 1.17C18.1725 1.1775 18.1588 1.18375 18.1513 1.19125L14.7237 4.83375L4.34875 1.05875C4.16993 0.99371 3.97627 0.981038 3.79051 1.02222C3.60474 1.0634 3.43458 1.15673 3.3 1.29125L0.3 4.29125C0.195461 4.39587 0.11543 4.52238 0.0656744 4.66166C0.0159188 4.80094 -0.00232313 4.94952 0.0122632 5.0967C0.0268495 5.24387 0.0739008 5.38599 0.150027 5.51279C0.226153 5.63959 0.329459 5.74793 0.4525 5.83L8.43875 11.1537L6.58625 13H4C3.73514 13.0001 3.48114 13.1053 3.29375 13.2925L0.29375 16.2925C0.176752 16.4092 0.0905023 16.5531 0.042714 16.7113C-0.00507427 16.8695 -0.0129116 17.0371 0.0199028 17.199C0.0527173 17.361 0.125161 17.5123 0.230755 17.6394C0.336348 17.7666 0.471801 17.8655 0.625 17.9275L5.2275 19.7687L7.065 24.3625L7.0725 24.3825C7.13607 24.5364 7.23705 24.6719 7.36628 24.7769C7.49551 24.8819 7.6489 24.9529 7.81254 24.9836C7.97617 25.0142 8.14488 25.0036 8.30335 24.9525C8.46181 24.9015 8.60503 24.8117 8.72 24.6912L11.7037 21.7062C11.7971 21.6138 11.8713 21.5038 11.9222 21.3826C11.973 21.2614 11.9994 21.1314 12 21V18.4137L13.845 16.5687L19.1688 24.555C19.2508 24.678 19.3592 24.7813 19.486 24.8575C19.6128 24.9336 19.7549 24.9806 19.9021 24.9952C20.0492 25.0098 20.1978 24.9916 20.3371 24.9418C20.4764 24.8921 20.6029 24.812 20.7075 24.7075L23.7075 21.7075C23.842 21.5729 23.9353 21.4028 23.9765 21.217C24.0177 21.0312 24.005 20.8376 23.94 20.6587L20.1663 10.2762ZM20.1575 22.43L14.8337 14.445C14.7521 14.321 14.6439 14.2168 14.517 14.1398C14.3901 14.0628 14.2477 14.0151 14.1 14C14.0663 14 14.0337 14 14.0012 14C13.8698 14.0001 13.7397 14.026 13.6183 14.0764C13.4969 14.1268 13.3866 14.2007 13.2938 14.2937L10.2937 17.2937C10.1061 17.4809 10.0005 17.735 10 18V20.5862L8.36625 22.22L6.92875 18.625C6.87845 18.5002 6.80349 18.3868 6.70834 18.2917C6.61318 18.1965 6.49981 18.1215 6.375 18.0712L2.7825 16.6337L4.415 15H7C7.13136 15.0001 7.26145 14.9743 7.38285 14.9241C7.50424 14.8739 7.61456 14.8003 7.7075 14.7075L10.7075 11.7075C10.8123 11.6029 10.8925 11.4763 10.9424 11.3369C10.9923 11.1975 11.0106 11.0487 10.996 10.9014C10.9814 10.754 10.9343 10.6118 10.858 10.4849C10.7817 10.3579 10.6783 10.2495 10.555 10.1675L2.57 4.8425L4.2575 3.15625L14.66 6.93875C14.8433 7.00609 15.0423 7.01831 15.2324 6.97388C15.4226 6.92946 15.5955 6.83033 15.73 6.68875L19.5975 2.575C19.9745 2.20906 20.4803 2.00614 21.0056 2.01009C21.531 2.01405 22.0337 2.22456 22.4051 2.59613C22.7765 2.96771 22.9868 3.47051 22.9905 3.99586C22.9943 4.52122 22.7911 5.02695 22.425 5.40375L18.3162 9.27C18.1747 9.40447 18.0755 9.57744 18.0311 9.76758C17.9867 9.95773 17.9989 10.1567 18.0662 10.34L21.8487 20.7425L20.1575 22.43Z" fill="white"/>
</svg>
